<svg width="1381" height="871" viewBox="0 0 1381 871" fill="none" xmlns="http://www.w3.org/2000/svg">
<rect width="1381" height="871" rx="55" fill="white"/>
<path d="M810.625 117.062H784.312V107.875C784.312 102.083 784.062 98.4583 783.562 97C783.062 95.5417 781.875 94.8125 780 94.8125C778.375 94.8125 777.271 95.4375 776.688 96.6875C776.104 97.9375 775.812 101.146 775.812 106.312V154.875C775.812 159.417 776.104 162.417 776.688 163.875C777.271 165.292 778.438 166 780.188 166C782.104 166 783.396 165.188 784.062 163.562C784.771 161.938 785.125 158.771 785.125 154.062V142.062H779.812V126.688H810.625V181H794.062L791.625 173.75C789.833 176.875 787.562 179.229 784.812 180.812C782.104 182.354 778.896 183.125 775.188 183.125C770.771 183.125 766.625 182.062 762.75 179.938C758.917 177.771 756 175.104 754 171.938C752 168.771 750.75 165.458 750.25 162C749.75 158.5 749.5 153.271 749.5 146.312V116.25C749.5 106.583 750.021 99.5625 751.062 95.1875C752.104 90.8125 755.083 86.8125 760 83.1875C764.958 79.5208 771.354 77.6875 779.188 77.6875C786.896 77.6875 793.292 79.2708 798.375 82.4375C803.458 85.6042 806.771 89.375 808.312 93.75C809.854 98.0833 810.625 104.396 810.625 112.688V117.062ZM842.688 130.188H819V124.625C819 118.208 819.729 113.271 821.188 109.812C822.688 106.312 825.667 103.229 830.125 100.562C834.583 97.8958 840.375 96.5625 847.5 96.5625C856.042 96.5625 862.479 98.0833 866.812 101.125C871.146 104.125 873.75 107.833 874.625 112.25C875.5 116.625 875.938 125.667 875.938 139.375V181H851.375V173.625C849.833 176.583 847.833 178.812 845.375 180.312C842.958 181.771 840.062 182.5 836.688 182.5C832.271 182.5 828.208 181.271 824.5 178.812C820.833 176.312 819 170.875 819 162.5V155.688C819 149.479 819.979 145.25 821.938 143C823.896 140.75 828.75 138.125 836.5 135.125C844.792 131.875 849.229 129.688 849.812 128.562C850.396 127.438 850.688 125.146 850.688 121.688C850.688 117.354 850.354 114.542 849.688 113.25C849.062 111.917 848 111.25 846.5 111.25C844.792 111.25 843.729 111.812 843.312 112.938C842.896 114.021 842.688 116.875 842.688 121.5V130.188ZM850.688 141.562C846.646 144.521 844.292 147 843.625 149C843 151 842.688 153.875 842.688 157.625C842.688 161.917 842.958 164.688 843.5 165.938C844.083 167.188 845.208 167.812 846.875 167.812C848.458 167.812 849.479 167.333 849.938 166.375C850.438 165.375 850.688 162.792 850.688 158.625V141.562ZM909.562 98.0625L909.125 105.938C911.083 102.812 913.417 100.479 916.125 98.9375C918.833 97.3542 921.917 96.5625 925.375 96.5625C932.125 96.5625 937.438 99.6875 941.312 105.938C943.438 102.812 945.833 100.479 948.5 98.9375C951.167 97.3542 954.125 96.5625 957.375 96.5625C961.667 96.5625 965.208 97.6042 968 99.6875C970.833 101.771 972.646 104.333 973.438 107.375C974.229 110.375 974.625 115.271 974.625 122.062V181H950.125V126.938C950.125 119.854 949.875 115.479 949.375 113.812C948.917 112.104 947.812 111.25 946.062 111.25C944.271 111.25 943.104 112.083 942.562 113.75C942.062 115.417 941.812 119.812 941.812 126.938V181H917.312V128.312C917.312 120.188 917.104 115.312 916.688 113.688C916.312 112.062 915.229 111.25 913.438 111.25C912.312 111.25 911.354 111.688 910.562 112.562C909.771 113.396 909.333 114.438 909.25 115.688C909.167 116.896 909.125 119.5 909.125 123.5V181H884.625V98.0625H909.562ZM1040.56 141H1007.88V158.938C1007.88 162.688 1008.15 165.104 1008.69 166.188C1009.23 167.271 1010.27 167.812 1011.81 167.812C1013.73 167.812 1015 167.104 1015.62 165.688C1016.29 164.229 1016.62 161.438 1016.62 157.312V146.375H1040.56V152.5C1040.56 157.625 1040.23 161.562 1039.56 164.312C1038.94 167.062 1037.44 170 1035.06 173.125C1032.69 176.25 1029.67 178.604 1026 180.188C1022.38 181.729 1017.81 182.5 1012.31 182.5C1006.98 182.5 1002.27 181.729 998.188 180.188C994.104 178.646 990.917 176.542 988.625 173.875C986.375 171.167 984.812 168.208 983.938 165C983.062 161.75 982.625 157.042 982.625 150.875V126.688C982.625 119.438 983.604 113.729 985.562 109.562C987.521 105.354 990.729 102.146 995.188 99.9375C999.646 97.6875 1004.77 96.5625 1010.56 96.5625C1017.65 96.5625 1023.48 97.9167 1028.06 100.625C1032.69 103.292 1035.92 106.854 1037.75 111.312C1039.62 115.729 1040.56 121.958 1040.56 130V141ZM1015.25 127.5V121.438C1015.25 117.146 1015.02 114.375 1014.56 113.125C1014.1 111.875 1013.17 111.25 1011.75 111.25C1010 111.25 1008.92 111.792 1008.5 112.875C1008.08 113.917 1007.88 116.771 1007.88 121.438V127.5H1015.25ZM1105.38 110.438H1080.94V102.938C1080.94 99.4375 1080.62 97.2083 1080 96.25C1079.38 95.2917 1078.33 94.8125 1076.88 94.8125C1075.29 94.8125 1074.08 95.4583 1073.25 96.75C1072.46 98.0417 1072.06 100 1072.06 102.625C1072.06 106 1072.52 108.542 1073.44 110.25C1074.31 111.958 1076.79 114.021 1080.88 116.438C1092.58 123.396 1099.96 129.104 1103 133.562C1106.04 138.021 1107.56 145.208 1107.56 155.125C1107.56 162.333 1106.71 167.646 1105 171.062C1103.33 174.479 1100.08 177.354 1095.25 179.688C1090.42 181.979 1084.79 183.125 1078.38 183.125C1071.33 183.125 1065.31 181.792 1060.31 179.125C1055.35 176.458 1052.1 173.062 1050.56 168.938C1049.02 164.812 1048.25 158.958 1048.25 151.375V144.75H1072.69V157.062C1072.69 160.854 1073.02 163.292 1073.69 164.375C1074.4 165.458 1075.62 166 1077.38 166C1079.12 166 1080.42 165.312 1081.25 163.938C1082.12 162.562 1082.56 160.521 1082.56 157.812C1082.56 151.854 1081.75 147.958 1080.12 146.125C1078.46 144.292 1074.35 141.229 1067.81 136.938C1061.27 132.604 1056.94 129.458 1054.81 127.5C1052.69 125.542 1050.92 122.833 1049.5 119.375C1048.12 115.917 1047.44 111.5 1047.44 106.125C1047.44 98.375 1048.42 92.7083 1050.38 89.125C1052.38 85.5417 1055.58 82.75 1060 80.75C1064.42 78.7083 1069.75 77.6875 1076 77.6875C1082.83 77.6875 1088.65 78.7917 1093.44 81C1098.27 83.2083 1101.46 86 1103 89.375C1104.58 92.7083 1105.38 98.3958 1105.38 106.438V110.438ZM1141.75 87V100.062H1148.56V113.188H1141.75V157.562C1141.75 163.021 1142.02 166.062 1142.56 166.688C1143.15 167.312 1145.5 167.625 1149.62 167.625V181H1139.44C1133.69 181 1129.58 180.771 1127.12 180.312C1124.67 179.812 1122.5 178.708 1120.62 177C1118.75 175.25 1117.58 173.271 1117.12 171.062C1116.67 168.812 1116.44 163.562 1116.44 155.312V113.188H1111V100.062H1116.44V87H1141.75ZM1176.69 130.188H1153V124.625C1153 118.208 1153.73 113.271 1155.19 109.812C1156.69 106.312 1159.67 103.229 1164.12 100.562C1168.58 97.8958 1174.38 96.5625 1181.5 96.5625C1190.04 96.5625 1196.48 98.0833 1200.81 101.125C1205.15 104.125 1207.75 107.833 1208.62 112.25C1209.5 116.625 1209.94 125.667 1209.94 139.375V181H1185.38V173.625C1183.83 176.583 1181.83 178.812 1179.38 180.312C1176.96 181.771 1174.06 182.5 1170.69 182.5C1166.27 182.5 1162.21 181.271 1158.5 178.812C1154.83 176.312 1153 170.875 1153 162.5V155.688C1153 149.479 1153.98 145.25 1155.94 143C1157.9 140.75 1162.75 138.125 1170.5 135.125C1178.79 131.875 1183.23 129.688 1183.81 128.562C1184.4 127.438 1184.69 125.146 1184.69 121.688C1184.69 117.354 1184.35 114.542 1183.69 113.25C1183.06 111.917 1182 111.25 1180.5 111.25C1178.79 111.25 1177.73 111.812 1177.31 112.938C1176.9 114.021 1176.69 116.875 1176.69 121.5V130.188ZM1184.69 141.562C1180.65 144.521 1178.29 147 1177.62 149C1177 151 1176.69 153.875 1176.69 157.625C1176.69 161.917 1176.96 164.688 1177.5 165.938C1178.08 167.188 1179.21 167.812 1180.88 167.812C1182.46 167.812 1183.48 167.333 1183.94 166.375C1184.44 165.375 1184.69 162.792 1184.69 158.625V141.562ZM1243.88 98.0625L1242.88 108.938C1246.54 101.146 1251.85 97.0208 1258.81 96.5625V125.75C1254.19 125.75 1250.79 126.375 1248.62 127.625C1246.46 128.875 1245.12 130.625 1244.62 132.875C1244.12 135.083 1243.88 140.208 1243.88 148.25V181H1218.62V98.0625H1243.88ZM1291.12 87V100.062H1297.94V113.188H1291.12V157.562C1291.12 163.021 1291.4 166.062 1291.94 166.688C1292.52 167.312 1294.88 167.625 1299 167.625V181H1288.81C1283.06 181 1278.96 180.771 1276.5 180.312C1274.04 179.812 1271.88 178.708 1270 177C1268.12 175.25 1266.96 173.271 1266.5 171.062C1266.04 168.812 1265.81 163.562 1265.81 155.312V113.188H1260.38V100.062H1265.81V87H1291.12Z" fill="#C30000"/>
<path d="M209.568 745.56C196.768 745.56 185.077 743.256 174.496 738.648C164.085 733.869 155.04 727.299 147.36 718.936C139.68 710.573 133.792 700.845 129.696 689.752C125.6 678.659 123.552 666.797 123.552 654.168C123.552 641.368 125.6 629.421 129.696 618.328C133.792 607.235 139.595 597.592 147.104 589.4C154.784 581.037 163.915 574.552 174.496 569.944C185.077 565.165 196.768 562.776 209.568 562.776C222.88 562.776 234.4 565.165 244.128 569.944C254.027 574.723 263.072 581.208 271.264 589.4L254.624 606.04C248.992 599.384 242.421 594.264 234.912 590.68C227.403 587.096 218.613 585.304 208.544 585.304C196.256 585.304 185.504 588.291 176.288 594.264C167.243 600.067 160.245 608.173 155.296 618.584C150.347 628.824 147.872 640.685 147.872 654.168C147.872 667.48 150.347 679.341 155.296 689.752C160.416 700.163 167.584 708.355 176.8 714.328C186.187 720.131 197.195 723.032 209.824 723.032C219.893 723.032 228.683 721.24 236.192 717.656C243.701 713.901 250.272 708.696 255.904 702.04L272.544 718.424C264.352 726.957 255.136 733.613 244.896 738.392C234.656 743.171 222.88 745.56 209.568 745.56ZM106.4 641.112V622.168H228.256L222.112 641.112H106.4ZM106.4 685.912V666.712H217.76L211.616 685.912H106.4ZM293.948 728.408L359.484 659.288C366.14 652.461 371.345 646.573 375.1 641.624C378.855 636.504 381.5 631.811 383.036 627.544C384.743 623.277 385.596 618.84 385.596 614.232C385.596 605.187 382.695 598.104 376.892 592.984C371.089 587.864 363.58 585.304 354.364 585.304C345.319 585.304 337.383 587.523 330.556 591.96C323.729 596.227 317.671 602.883 312.38 611.928L295.484 597.848C302.481 586.243 310.929 577.539 320.828 571.736C330.727 565.763 342.161 562.776 355.132 562.776C366.055 562.776 375.527 564.909 383.548 569.176C391.74 573.443 398.055 579.416 402.492 587.096C406.929 594.776 409.148 603.736 409.148 613.976C409.148 621.315 408.209 627.885 406.332 633.688C404.625 639.491 401.468 645.464 396.86 651.608C392.423 657.581 386.193 664.749 378.172 673.112L325.18 727.64L293.948 728.408ZM293.948 743V728.408L314.428 721.496H413.244V743H293.948ZM508.48 745.56C495.168 745.56 482.965 741.805 471.872 734.296C460.949 726.787 452.245 716.205 445.76 702.552C439.275 688.728 436.032 672.515 436.032 653.912C436.032 635.309 439.189 619.181 445.504 605.528C451.989 591.875 460.693 581.379 471.616 574.04C482.539 566.531 494.571 562.776 507.712 562.776C521.195 562.776 533.397 566.531 544.32 574.04C555.243 581.379 563.861 591.875 570.176 605.528C576.661 619.181 579.904 635.395 579.904 654.168C579.904 672.771 576.661 688.984 570.176 702.808C563.861 716.461 555.243 727.043 544.32 734.552C533.568 741.891 521.621 745.56 508.48 745.56ZM507.968 722.776C517.355 722.776 525.547 720.216 532.544 715.096C539.712 709.805 545.344 702.04 549.44 691.8C553.536 681.56 555.584 668.931 555.584 653.912C555.584 638.893 553.536 626.349 549.44 616.28C545.344 606.04 539.712 598.36 532.544 593.24C525.376 587.949 517.099 585.304 507.712 585.304C498.496 585.304 490.304 587.949 483.136 593.24C475.968 598.36 470.336 606.04 466.24 616.28C462.315 626.349 460.352 638.893 460.352 653.912C460.352 668.931 462.315 681.56 466.24 691.8C470.336 702.04 475.968 709.805 483.136 715.096C490.304 720.216 498.581 722.776 507.968 722.776Z" fill="#C30000"/>
<path d="M901.508 244.396C899.612 244.396 897.848 244.072 896.216 243.424C894.608 242.752 893.192 241.816 891.968 240.616C890.768 239.416 889.832 238.024 889.16 236.44C888.488 234.832 888.152 233.104 888.152 231.256C888.152 229.408 888.488 227.692 889.16 226.108C889.832 224.5 890.768 223.108 891.968 221.932C893.168 220.756 894.572 219.844 896.18 219.196C897.812 218.524 899.576 218.188 901.472 218.188C903.488 218.188 905.276 218.512 906.836 219.16C908.42 219.808 909.8 220.696 910.976 221.824L907.196 225.64C906.524 224.92 905.708 224.356 904.748 223.948C903.812 223.54 902.72 223.336 901.472 223.336C900.368 223.336 899.348 223.528 898.412 223.912C897.5 224.272 896.708 224.8 896.036 225.496C895.388 226.192 894.872 227.032 894.488 228.016C894.128 229 893.948 230.08 893.948 231.256C893.948 232.456 894.128 233.548 894.488 234.532C894.872 235.516 895.388 236.356 896.036 237.052C896.708 237.748 897.5 238.288 898.412 238.672C899.348 239.056 900.368 239.248 901.472 239.248C902.768 239.248 903.896 239.044 904.856 238.636C905.816 238.228 906.644 237.664 907.34 236.944L911.156 240.76C909.932 241.888 908.528 242.776 906.944 243.424C905.384 244.072 903.572 244.396 901.508 244.396ZM911.728 244L921.808 218.584H926.92L936.892 244H930.916L923.284 222.904H925.336L917.596 244H911.728ZM917.452 239.392V234.784H931.312V239.392H917.452ZM943.901 233.524V229.348H949.265C950.393 229.348 951.257 229.06 951.857 228.484C952.481 227.908 952.793 227.128 952.793 226.144C952.793 225.232 952.493 224.476 951.893 223.876C951.293 223.276 950.429 222.976 949.301 222.976H943.901V218.584H949.949C951.629 218.584 953.105 218.908 954.377 219.556C955.649 220.18 956.645 221.056 957.365 222.184C958.085 223.312 958.445 224.608 958.445 226.072C958.445 227.56 958.085 228.868 957.365 229.996C956.645 231.1 955.637 231.964 954.341 232.588C953.045 233.212 951.521 233.524 949.769 233.524H943.901ZM939.581 244V218.584H945.233V244H939.581ZM953.405 244L945.485 233.056L950.669 231.652L960.101 244H953.405ZM967.957 244V218.944H973.609V244H967.957ZM960.001 223.516V218.584H981.565V223.516H960.001ZM979.685 244L989.765 218.584H994.877L1004.85 244H998.873L991.241 222.904H993.293L985.553 244H979.685ZM985.409 239.392V234.784H999.269V239.392H985.409ZM1017.98 233.524V229.348H1023.34C1024.47 229.348 1025.33 229.06 1025.93 228.484C1026.56 227.908 1026.87 227.128 1026.87 226.144C1026.87 225.232 1026.57 224.476 1025.97 223.876C1025.37 223.276 1024.5 222.976 1023.38 222.976H1017.98V218.584H1024.02C1025.7 218.584 1027.18 218.908 1028.45 219.556C1029.72 220.18 1030.72 221.056 1031.44 222.184C1032.16 223.312 1032.52 224.608 1032.52 226.072C1032.52 227.56 1032.16 228.868 1031.44 229.996C1030.72 231.1 1029.71 231.964 1028.42 232.588C1027.12 233.212 1025.6 233.524 1023.84 233.524H1017.98ZM1013.66 244V218.584H1019.31V244H1013.66ZM1027.48 244L1019.56 233.056L1024.74 231.652L1034.18 244H1027.48ZM1036.65 244V218.584H1042.3V244H1036.65ZM1040.97 244V239.104H1054.9V244H1040.97ZM1040.97 233.38V228.664H1053.64V233.38H1040.97ZM1040.97 223.444V218.584H1054.72V223.444H1040.97ZM1070.33 244.396C1068.48 244.396 1066.74 244.06 1065.11 243.388C1063.5 242.716 1062.09 241.792 1060.89 240.616C1059.69 239.416 1058.75 238.024 1058.05 236.44C1057.38 234.832 1057.04 233.104 1057.04 231.256C1057.04 229.408 1057.39 227.692 1058.09 226.108C1058.78 224.524 1059.74 223.144 1060.97 221.968C1062.21 220.768 1063.67 219.844 1065.32 219.196C1066.98 218.524 1068.75 218.188 1070.65 218.188C1072.83 218.188 1074.81 218.584 1076.59 219.376C1078.39 220.168 1079.88 221.26 1081.05 222.652L1077.2 226.504C1076.39 225.448 1075.43 224.656 1074.32 224.128C1073.22 223.6 1071.97 223.336 1070.58 223.336C1069.09 223.336 1067.76 223.672 1066.58 224.344C1065.41 224.992 1064.48 225.916 1063.81 227.116C1063.16 228.292 1062.84 229.672 1062.84 231.256C1062.84 232.84 1063.16 234.232 1063.81 235.432C1064.46 236.632 1065.35 237.568 1066.47 238.24C1067.6 238.912 1068.9 239.248 1070.36 239.248C1071.85 239.248 1073.11 238.972 1074.14 238.42C1075.2 237.844 1076 237.028 1076.55 235.972C1077.13 234.892 1077.42 233.584 1077.42 232.048L1081.16 234.568L1069.82 234.388V229.6H1083.18V230.428C1083.18 233.476 1082.63 236.044 1081.52 238.132C1080.44 240.196 1078.93 241.756 1076.99 242.812C1075.07 243.868 1072.85 244.396 1070.33 244.396ZM1083.61 244L1093.69 218.584H1098.8L1108.77 244H1102.79L1095.16 222.904H1097.21L1089.47 244H1083.61ZM1089.33 239.392V234.784H1103.19V239.392H1089.33ZM1111.46 244V218.584H1117.11V244H1111.46ZM1115.82 244V239.032H1128.38V244H1115.82ZM1142.37 244.432C1140.45 244.432 1138.67 244.096 1137.04 243.424C1135.43 242.752 1134.01 241.816 1132.79 240.616C1131.57 239.416 1130.62 238.024 1129.95 236.44C1129.27 234.832 1128.94 233.104 1128.94 231.256C1128.94 229.384 1129.27 227.656 1129.95 226.072C1130.62 224.488 1131.55 223.108 1132.75 221.932C1133.95 220.732 1135.36 219.808 1136.97 219.16C1138.6 218.488 1140.37 218.152 1142.29 218.152C1144.19 218.152 1145.94 218.488 1147.55 219.16C1149.18 219.808 1150.6 220.732 1151.8 221.932C1153.02 223.108 1153.97 224.5 1154.64 226.108C1155.31 227.692 1155.65 229.42 1155.65 231.292C1155.65 233.14 1155.31 234.868 1154.64 236.476C1153.97 238.06 1153.03 239.452 1151.83 240.652C1150.63 241.828 1149.22 242.752 1147.59 243.424C1145.98 244.096 1144.24 244.432 1142.37 244.432ZM1142.29 239.284C1143.81 239.284 1145.13 238.948 1146.25 238.276C1147.41 237.604 1148.29 236.668 1148.92 235.468C1149.54 234.244 1149.85 232.84 1149.85 231.256C1149.85 230.056 1149.67 228.976 1149.31 228.016C1148.95 227.032 1148.44 226.192 1147.77 225.496C1147.09 224.776 1146.29 224.236 1145.35 223.876C1144.44 223.492 1143.42 223.3 1142.29 223.3C1140.78 223.3 1139.45 223.636 1138.3 224.308C1137.17 224.956 1136.29 225.88 1135.67 227.08C1135.05 228.256 1134.73 229.648 1134.73 231.256C1134.73 232.456 1134.91 233.548 1135.27 234.532C1135.63 235.516 1136.14 236.368 1136.79 237.088C1137.46 237.784 1138.26 238.324 1139.2 238.708C1140.13 239.092 1141.17 239.284 1142.29 239.284Z" fill="#C30000" fill-opacity="0.8"/>
</svg>
