<?xml version="1.0" standalone="no"?>
<!DOCTYPE svg PUBLIC "-//W3C//DTD SVG 20010904//EN"
 "http://www.w3.org/TR/2001/REC-SVG-20010904/DTD/svg10.dtd">
<svg version="1.0" xmlns="http://www.w3.org/2000/svg"
 width="512.000000pt" height="585.000000pt" viewBox="0 0 512.000000 585.000000"
 preserveAspectRatio="xMidYMid meet">

<g transform="translate(0.000000,585.000000) scale(0.100000,-0.100000)"
fill="#000000" stroke="none">
<path d="M1860 5705 c-110 -22 -269 -74 -371 -123 -65 -31 -228 -130 -253
-154 -8 -7 -27 -22 -42 -33 -100 -71 -295 -264 -404 -400 -142 -179 -304 -456
-395 -677 -15 -35 -32 -76 -40 -93 -28 -62 -84 -245 -116 -375 -17 -74 -34
-142 -37 -150 -2 -8 -6 -26 -8 -40 -1 -14 -5 -36 -9 -50 -65 -272 -75 -851
-19 -1185 8 -49 17 -101 19 -115 9 -56 15 -82 54 -233 41 -161 88 -309 122
-383 10 -22 27 -63 37 -90 31 -77 81 -181 136 -279 53 -96 181 -296 212 -332
10 -12 28 -34 39 -49 67 -93 276 -308 360 -370 22 -16 47 -35 55 -43 32 -31
190 -129 271 -168 88 -43 252 -102 304 -110 17 -2 44 -9 60 -15 49 -17 277
-21 460 -9 94 7 193 13 220 15 28 1 118 8 200 14 83 7 263 19 400 27 287 17
345 29 500 105 354 172 707 575 905 1032 22 50 40 95 40 100 0 5 11 34 26 63
14 30 45 121 70 202 38 126 58 214 114 488 59 289 59 1084 0 1380 -95 474
-158 677 -300 970 -195 402 -474 725 -775 898 -137 78 -232 104 -435 117 -96
6 -236 15 -310 21 -74 5 -160 11 -190 13 -30 2 -179 13 -330 24 -311 24 -475
26 -570 7z m397 -205 c32 -6 67 -12 78 -14 87 -15 296 -102 410 -169 32 -19
99 -61 110 -70 6 -4 33 -24 60 -45 100 -74 255 -223 325 -311 19 -25 50 -63
68 -85 46 -58 42 -53 103 -146 97 -148 206 -354 259 -490 18 -47 39 -99 46
-117 8 -17 14 -37 14 -45 0 -8 4 -18 9 -23 11 -14 66 -210 90 -325 53 -251 74
-453 74 -700 -1 -156 -14 -382 -27 -450 -3 -14 -10 -56 -16 -95 -24 -154 -89
-418 -119 -490 -5 -11 -19 -49 -32 -85 -12 -36 -25 -69 -29 -75 -4 -5 -15 -32
-25 -60 -30 -82 -122 -263 -181 -357 -13 -21 -24 -40 -24 -42 0 -7 -116 -173
-159 -227 -151 -190 -345 -364 -516 -461 -125 -71 -334 -158 -381 -158 -13 0
-25 -4 -28 -9 -5 -8 -52 -16 -146 -27 -120 -14 -374 1 -425 25 -11 5 -54 21
-95 34 -399 133 -821 557 -1064 1071 -25 54 -46 100 -46 102 0 2 -9 23 -19 47
-18 41 -33 77 -35 87 -1 3 -7 14 -13 25 -22 41 -119 379 -128 445 -1 8 -5 31
-10 50 -5 19 -8 43 -6 53 1 10 -3 25 -9 32 -7 8 -10 22 -6 31 3 8 2 23 -3 32
-9 18 -20 110 -26 222 -2 36 -7 73 -11 83 -7 18 1 422 9 492 3 22 8 73 12 114
3 41 10 82 15 92 6 10 7 25 4 33 -4 9 -1 23 6 31 6 7 10 22 9 32 -6 48 108
477 151 568 5 11 26 61 46 110 32 80 49 116 119 255 38 74 171 286 195 310 3
3 25 32 50 65 50 68 270 292 345 351 134 107 273 184 415 233 36 12 72 25 80
28 8 3 20 7 25 8 6 1 12 3 15 5 47 24 324 30 437 10z m708 -9 c33 -5 74 -9 90
-8 17 0 82 -5 146 -11 162 -15 271 -54 404 -146 33 -22 62 -43 65 -46 3 -3 21
-17 40 -32 77 -58 213 -197 280 -287 14 -18 34 -45 46 -59 95 -120 251 -396
309 -546 12 -34 29 -74 36 -91 7 -16 13 -32 14 -35 1 -3 4 -12 7 -20 12 -30
57 -166 71 -215 18 -60 74 -314 82 -370 0 -5 4 -30 8 -55 46 -285 56 -752 23
-1030 -3 -25 -8 -67 -11 -95 -3 -27 -10 -68 -15 -90 -5 -22 -18 -87 -30 -145
-11 -58 -31 -145 -45 -195 -14 -49 -28 -100 -30 -112 -3 -12 -10 -35 -17 -50
-6 -16 -12 -32 -14 -38 -6 -27 -91 -230 -130 -313 -195 -418 -552 -823 -844
-959 -92 -43 -130 -50 -355 -68 -110 -8 -227 -17 -260 -20 l-60 -5 62 35 c193
107 415 297 579 496 93 113 289 448 368 629 36 85 66 162 96 255 19 55 37 105
41 110 4 6 10 30 14 55 4 25 11 50 15 55 4 6 10 26 13 45 4 19 13 67 22 105
22 100 43 239 59 395 17 154 15 530 -3 700 -13 119 -56 368 -78 450 -8 30 -19
73 -25 95 -5 22 -13 49 -18 60 -5 11 -19 52 -31 90 -12 39 -40 115 -62 170
-21 55 -44 114 -51 130 -6 17 -15 36 -20 44 -5 8 -27 50 -49 94 -197 399 -509
756 -830 950 -39 24 -91 54 -114 66 -24 12 -43 24 -43 26 0 6 168 -4 245 -14z"/>
<path d="M1833 5086 c-184 -49 -348 -150 -513 -314 -136 -137 -148 -151 -246
-299 -84 -126 -128 -209 -210 -403 -9 -19 -19 -44 -24 -55 -21 -45 -62 -180
-86 -282 -14 -59 -28 -115 -31 -123 -3 -8 -7 -26 -9 -40 -5 -38 -11 -78 -24
-160 -7 -41 -15 -95 -19 -120 -8 -71 -7 -578 2 -650 5 -36 10 -76 12 -90 1
-14 5 -36 9 -50 4 -14 9 -43 12 -65 3 -22 6 -51 8 -65 2 -14 6 -32 10 -40 3
-8 17 -63 31 -121 27 -115 67 -242 90 -286 8 -16 15 -35 15 -43 0 -9 4 -20 9
-25 5 -6 23 -44 41 -85 81 -193 279 -483 416 -610 157 -145 345 -257 495 -294
215 -53 414 -37 624 49 11 5 22 9 25 9 31 7 191 106 260 161 273 218 486 545
626 960 13 39 24 77 24 85 0 8 7 28 15 44 9 16 14 31 11 33 -2 2 3 28 11 56
64 226 96 625 75 932 -11 159 -46 409 -61 436 -5 9 -13 38 -16 65 -4 27 -11
54 -15 59 -4 6 -11 26 -15 45 -31 144 -143 407 -245 575 -20 33 -43 71 -51 85
-8 14 -56 77 -106 141 -190 239 -418 403 -658 475 -77 23 -113 27 -245 30
-140 4 -164 2 -247 -20z m481 -180 c187 -48 352 -157 521 -346 52 -60 132
-167 148 -200 4 -8 23 -42 42 -75 70 -120 130 -259 191 -444 13 -40 24 -82 24
-92 0 -10 5 -21 11 -25 6 -3 9 -15 6 -25 -3 -10 -2 -21 2 -24 15 -9 53 -234
71 -414 28 -288 -1 -750 -61 -963 -7 -23 -13 -50 -15 -58 -7 -38 -25 -107 -33
-125 -5 -11 -26 -68 -47 -128 -46 -134 -125 -292 -212 -422 -113 -170 -314
-355 -462 -427 -157 -76 -225 -92 -375 -93 -102 0 -130 4 -185 24 -152 56
-330 186 -460 334 -68 77 -180 228 -180 241 0 3 -20 38 -44 78 -63 107 -102
196 -151 341 -24 71 -46 131 -48 134 -3 3 -3 11 0 19 3 8 1 20 -5 27 -11 14
-27 77 -23 91 1 6 -2 19 -8 30 -14 31 -39 194 -52 352 -19 228 4 697 38 784 4
8 5 19 4 24 -1 5 1 16 5 25 4 9 8 23 9 31 2 33 18 96 27 106 5 7 8 16 6 20 -7
24 102 317 167 451 193 399 463 678 729 754 94 27 241 25 360 -5z"/>
<path d="M2042 3780 c-232 -62 -357 -223 -407 -522 l-6 -38 -99 0 -100 0 0
-70 0 -70 95 0 95 0 0 -85 0 -85 -95 0 -95 0 0 -65 0 -64 97 -3 97 -3 17 -100
c32 -180 82 -287 177 -377 32 -30 76 -65 99 -76 111 -57 292 -81 474 -63 97 9
259 38 268 46 5 6 -9 129 -17 142 -5 7 -23 8 -57 2 -100 -16 -338 -22 -410
-10 -133 23 -220 82 -270 185 -26 54 -65 193 -65 233 l0 23 240 0 c184 0 242
3 244 13 3 6 7 36 10 65 l5 52 -254 0 -255 0 0 85 0 85 295 0 295 0 0 28 c0
15 3 44 6 65 l7 37 -291 0 c-160 0 -293 3 -295 8 -8 14 22 133 48 189 91 199
253 249 661 207 l61 -7 10 74 c6 41 9 76 7 78 -2 2 -29 10 -61 18 -38 10 -126
16 -258 19 -176 4 -209 2 -273 -16z"/>
</g>
</svg>
